<svg id="visual" viewBox="0 0 2000 1300" width="2000" height="1300" xmlns="http://www.w3.org/2000/svg" xmlns:xlink="http://www.w3.org/1999/xlink" version="1.1"><path d="M0 953L250 976L500 977L750 943L1000 964L1250 962L1500 944L1750 1002L2000 935L2000 1301L1750 1301L1500 1301L1250 1301L1000 1301L750 1301L500 1301L250 1301L0 1301Z" fill="#0c181c"></path><path d="M0 992L250 1018L500 1001L750 1020L1000 1003L1250 1055L1500 986L1750 1002L2000 1013L2000 1301L1750 1301L1500 1301L1250 1301L1000 1301L750 1301L500 1301L250 1301L0 1301Z" fill="#0f2729"></path><path d="M0 1099L250 1079L500 1089L750 1090L1000 1058L1250 1065L1500 1043L1750 1067L2000 1084L2000 1301L1750 1301L1500 1301L1250 1301L1000 1301L750 1301L500 1301L250 1301L0 1301Z" fill="#173731"></path><path d="M0 1145L250 1135L500 1142L750 1139L1000 1144L1250 1082L1500 1082L1750 1116L2000 1127L2000 1301L1750 1301L1500 1301L1250 1301L1000 1301L750 1301L500 1301L250 1301L0 1301Z" fill="#1d3d33"></path><path d="M0 1161L250 1170L500 1179L750 1183L1000 1179L1250 1139L1500 1154L1750 1178L2000 1178L2000 1301L1750 1301L1500 1301L1250 1301L1000 1301L750 1301L500 1301L250 1301L0 1301Z" fill="#173731"></path><path d="M0 1203L250 1195L500 1207L750 1199L1000 1175L1250 1234L1500 1228L1750 1206L2000 1221L2000 1301L1750 1301L1500 1301L1250 1301L1000 1301L750 1301L500 1301L250 1301L0 1301Z" fill="#0f2729"></path><path d="M0 1264L250 1225L500 1227L750 1230L1000 1266L1250 1248L1500 1252L1750 1261L2000 1229L2000 1301L1750 1301L1500 1301L1250 1301L1000 1301L750 1301L500 1301L250 1301L0 1301Z" fill="#0c181c"></path></svg>